<?xml version="1.0" encoding="UTF-8" standalone="no"?>
<!-- Created with Inkscape (http://www.inkscape.org/) -->

<svg
   width="210mm"
   height="297mm"
   viewBox="0 0 210 297"
   version="1.1"
   id="svg84999"
   inkscape:version="1.2.1 (9c6d41e410, 2022-07-14)"
   sodipodi:docname="swimming-vector.svg"
   xmlns:inkscape="http://www.inkscape.org/namespaces/inkscape"
   xmlns:sodipodi="http://sodipodi.sourceforge.net/DTD/sodipodi-0.dtd"
   xmlns="http://www.w3.org/2000/svg"
   xmlns:svg="http://www.w3.org/2000/svg">
  <sodipodi:namedview
     id="namedview85001"
     pagecolor="#ffffff"
     bordercolor="#cccccc"
     borderopacity="1"
     inkscape:showpageshadow="0"
     inkscape:pageopacity="1"
     inkscape:pagecheckerboard="0"
     inkscape:deskcolor="#d1d1d1"
     inkscape:document-units="mm"
     showgrid="false"
     inkscape:zoom="1.5862247"
     inkscape:cx="312.69214"
     inkscape:cy="104.651"
     inkscape:window-width="1920"
     inkscape:window-height="939"
     inkscape:window-x="0"
     inkscape:window-y="32"
     inkscape:window-maximized="1"
     inkscape:current-layer="layer1" />
  <defs
     id="defs84996">
    <marker
       style="overflow:visible"
       id="marker86618"
       refX="0"
       refY="0"
       orient="auto-start-reverse"
       inkscape:stockid="Arrow2"
       markerWidth="7.6999998"
       markerHeight="5.5999999"
       viewBox="0 0 7.7 5.6"
       inkscape:isstock="true"
       inkscape:collect="always"
       preserveAspectRatio="xMidYMid">
      <path
         transform="scale(0.7)"
         d="M -2,-4 9,0 -2,4 c 2,-2.33 2,-5.66 0,-8 z"
         style="fill:context-stroke;fill-rule:evenodd;stroke:none"
         id="path86616" />
    </marker>
    <marker
       style="overflow:visible"
       id="Arrow2"
       refX="0"
       refY="0"
       orient="auto-start-reverse"
       inkscape:stockid="Arrow2"
       markerWidth="7.6999998"
       markerHeight="5.5999999"
       viewBox="0 0 7.7 5.6"
       inkscape:isstock="true"
       inkscape:collect="always"
       preserveAspectRatio="xMidYMid">
      <path
         transform="scale(0.7)"
         d="M -2,-4 9,0 -2,4 c 2,-2.33 2,-5.66 0,-8 z"
         style="fill:context-stroke;fill-rule:evenodd;stroke:none"
         id="arrow2L" />
    </marker>
    <marker
       style="overflow:visible"
       id="Arrow2-9"
       refX="0"
       refY="0"
       orient="auto-start-reverse"
       inkscape:stockid="Arrow2"
       markerWidth="7.6999998"
       markerHeight="5.5999999"
       viewBox="0 0 7.7 5.6"
       inkscape:isstock="true"
       inkscape:collect="always"
       preserveAspectRatio="xMidYMid">
      <path
         transform="scale(0.7)"
         d="M -2,-4 9,0 -2,4 c 2,-2.33 2,-5.66 0,-8 z"
         style="fill:context-stroke;fill-rule:evenodd;stroke:none"
         id="arrow2L-3" />
    </marker>
  </defs>
  <g
     inkscape:label="Layer 1"
     inkscape:groupmode="layer"
     id="layer1">
    <rect
       style="opacity:0.95;fill:#008000;fill-opacity:0.731969;stroke:none;stroke-width:0.234574"
       id="rect844"
       width="57.412304"
       height="44.749813"
       x="110.16594"
       y="15.759514" />
    <path
       style="opacity:0.95;fill:none;stroke:#000000;stroke-width:0.151525;stroke-dasharray:none"
       d="m 115.71773,15.77427 c 0.83229,0.312361 1.92394,0.985627 2.76001,1.251909 0.2841,0.09048 0.10197,-0.162938 0.46083,0.14691 0.28606,0.24701 0.0879,0.993063 0.12735,1.241089 0.0262,0.164952 0.21699,0.302438 0.24945,0.466855 0.24718,1.251418 -0.24463,2.636005 -0.2915,3.897463 -0.0368,0.993203 -0.49332,1.99492 -0.47115,2.987946 0.0524,2.34934 -0.55563,5.767483 -1.42671,8.023654 -0.32967,0.853867 -0.94044,1.640774 -1.3591,2.472699 -0.54877,1.090455 -0.89116,2.265462 -1.33908,3.370124 -0.23627,0.582691 -0.50448,1.225569 -0.45358,1.852069 0.0765,0.942362 2.01849,1.767032 2.79917,2.441129 0.70162,0.605804 1.0138,1.366021 1.61886,2.026478 0.33152,0.36186 0.67296,0.697157 0.96033,1.080663 0.35369,0.471988 0.25612,1.503275 0.32467,2.038716 0.0446,0.348573 -0.2806,0.766328 -0.1745,1.106645 0.0506,0.16221 0.21697,0.302439 0.24945,0.466856 0.17622,0.89215 0.0773,1.809074 0.2197,2.704344 0.0679,0.427252 0.4451,0.704007 0.63877,1.049231 0.0426,0.07608 0.3815,0.227392 0.39082,0.245381 0.60011,1.157602 -0.11287,3.136962 0.0567,4.461561 0.007,0.05228 0.11587,0.07355 0.14218,0.122762 0.26332,0.492846 0.47774,1.057144 0.39625,1.573854"
       id="path85185" />
    <path
       style="opacity:0.95;fill:none;stroke:#000000;stroke-width:0.134214;stroke-dasharray:none"
       d="m 154.17113,15.553564 c 1.38013,1.638815 1.68354,3.625501 2.11669,5.6354 0.14682,0.681243 0.42723,1.339665 0.49041,2.032968 0.0988,1.08465 -0.11252,2.47802 -0.36629,3.514786 -0.13056,0.533381 -0.87979,2.285967 -1.01775,2.644411 -0.14096,0.366261 -0.2207,0.756064 -0.39486,1.108586 -0.51401,1.040364 -1.35822,1.969794 -1.74117,3.077193 -0.0766,0.221295 -0.0883,0.460735 -0.16678,0.681357 -0.0541,0.151602 -0.18988,0.271158 -0.22808,0.427231 -0.0656,0.26766 -0.0122,0.554256 -0.0777,0.821917 -0.0293,0.119703 -0.19007,0.191038 -0.20028,0.313677 -0.084,1.006942 0.10846,2.305575 0.30155,3.309118 0.11554,0.600597 0.11749,1.205763 0.71847,1.605735 0.2313,0.153928 0.56761,0.067 0.81825,0.18902 0.94196,0.45858 2.45301,1.54881 2.68355,2.659579 0.0653,0.314521 0.0264,0.641963 0.0114,0.962482 -0.11456,2.459044 -0.0402,0.621102 -0.40551,2.665856 -0.93752,5.246948 -0.5219,3.053718 -0.98897,6.612929 -0.056,0.426306 -0.11745,0.852033 -0.18887,1.276155 -0.0352,0.20921 -0.30219,0.46547 -0.15143,0.618721 0.15954,0.162177 0.11679,0.664431 0.12025,0.955561 0.003,0.219876 0.41057,1.330907 0.39466,1.395955 -0.0131,0.05354 -0.13159,0.03304 -0.14469,0.08655 -0.009,0.03522 0.11879,0.313822 0.13302,0.366524 0.0401,0.148356 -0.0837,0.116567 -0.12276,0.141737 -0.005,0.003 -0.0695,0.731404 -0.0682,0.745418 0.01,0.109622 0.12982,0.18162 0.1782,0.281132 0.0617,0.126847 0.0521,0.291974 0.15039,0.394677 0.0386,0.04028 0.0897,-0.09923 0.1447,-0.08655 0.0356,0.0082 0.27905,0.483648 0.28804,0.507767"
       id="path85187" />
    <path
       style="opacity:0.95;fill:#bbbbff;fill-opacity:0.731969;stroke:none;stroke-width:0.84057"
       d="m 459.30783,225.85073 c -0.64467,-1.69773 -0.84998,-4.61391 -0.72839,-10.34576 0.1548,-7.29737 0.06,-8.09097 -1.10569,-9.25666 -3.43718,-3.43718 -4.6992,-8.9559 -4.52527,-19.78869 0.0946,-5.89006 -0.76447,-8.43495 -4.23622,-12.54972 -1.64993,-1.95552 -3.78801,-4.57453 -4.7513,-5.82002 -0.96328,-1.24549 -3.51652,-3.44501 -5.67385,-4.88783 -5.82075,-3.89292 -6.75934,-4.89645 -6.75934,-7.227 0,-2.84433 3.6661,-12.29896 8.53422,-22.00916 5.5032,-10.97697 8.48144,-22.98916 8.49084,-34.246323 0.002,-2.315373 0.27862,-5.202693 0.61485,-6.416266 0.83831,-3.025698 2.52246,-16.062834 2.52868,-19.574781 0.003,-1.577645 -0.25964,-3.137954 -0.58321,-3.467352 -0.32356,-0.329399 -0.67818,-1.733676 -0.78803,-3.120617 -0.15586,-1.967732 -0.53309,-2.660206 -1.71717,-3.152139 -0.83459,-0.346735 -3.10413,-1.388831 -5.04342,-2.315768 l -3.52599,-1.685341 71.35301,-0.04834 71.35301,-0.04834 1.23166,1.733676 c 2.06199,2.902426 3.23526,6.328305 5.87074,17.142335 2.48031,10.177314 2.51315,10.46266 1.81102,15.738824 -0.90395,6.792812 -5.31412,18.803772 -9.39646,25.591012 -2.96354,4.92712 -5.10495,10.31634 -5.10495,12.84741 0,0.69454 -0.31372,1.45668 -0.69715,1.69366 -0.81639,0.50455 -0.29095,7.77143 1.02179,14.13151 0.88104,4.26852 2.44773,6.31616 4.83264,6.31616 2.72874,0 10.16862,6.55893 10.94395,9.64809 0.41484,1.65283 -0.36509,7.9438 -2.18997,17.66457 -0.70456,3.75308 -1.73251,10.41985 -2.28432,14.81506 -0.55182,4.3952 -1.25605,8.9842 -1.56495,10.19778 -0.35214,1.38341 -0.30346,3.73507 0.1305,6.30427 0.38067,2.25378 0.75308,5.65809 0.82757,7.56514 0.186,4.7618 0.20022,4.82594 1.31831,5.94403 0.90061,0.90061 -4.93115,0.99067 -64.14937,0.99067 h -65.14004 z"
       id="path2793"
       transform="scale(0.26458333)" />
    <path
       style="opacity:0.95;fill:#9999ff;fill-opacity:1;stroke:none;stroke-width:0.84057"
       d="m 459.79705,226.48115 c -0.38455,-0.95352 -0.84166,-5.70396 -1.01578,-10.55653 -0.29184,-8.13303 -0.43728,-8.98108 -1.86007,-10.84646 -2.3262,-3.0498 -3.22613,-6.92449 -3.66754,-15.79082 -0.22014,-4.42165 -0.68658,-8.97694 -1.03654,-10.12285 -1.29147,-4.22886 -9.82848,-13.68053 -16.48354,-18.24961 -1.64281,-1.12788 -3.21798,-2.6753 -3.50038,-3.4387 -0.96133,-2.59873 0.67086,-7.22233 8.96706,-25.40158 4.88107,-10.69575 6.33962,-16.88467 7.94869,-33.727878 0.3478,-3.64072 1.05888,-9.456415 1.58018,-12.923768 1.1523,-7.664418 1.18618,-13.455453 0.10327,-17.651976 -0.75544,-2.927523 -1.07915,-3.296875 -4.54277,-5.183303 l -3.72938,-2.031165 47.33659,-0.01773 c 26.03513,-0.0097 57.52648,-0.204297 69.98079,-0.43233 l 22.64421,-0.414604 1.77956,3.269632 c 2.03712,3.742872 2.2148,4.290186 5.17114,15.928549 1.20112,4.728539 2.18386,10.002392 2.18386,11.719675 0,6.574438 -3.75324,17.983578 -9.52338,28.949328 -5.87495,11.16489 -7.02878,16.82873 -5.3776,26.39698 1.13104,6.55411 2.29425,8.39431 6.1102,9.66629 1.81872,0.60624 4.06305,2.19944 6.42353,4.55991 3.38278,3.38279 3.62811,3.82747 3.62811,6.57634 0,1.62153 -0.83198,7.95638 -1.84883,14.07745 -4.10764,24.72629 -4.6248,29.26125 -3.88251,34.04542 0.37836,2.43854 0.68792,5.74557 0.68792,7.34893 0,1.60338 0.26898,3.41783 0.59775,4.03213 0.56688,1.05923 -0.98753,1.13844 -30.10292,1.53392 -16.88538,0.22935 -45.81433,0.41732 -64.28656,0.41771 l -33.58588,7.1e-4 z"
       id="path12869"
       transform="scale(0.26458333)" />
    <path
       style="opacity:0.95;fill:none;stroke:#000000;stroke-width:0.352777;stroke-dasharray:none;marker-end:url(#Arrow2)"
       d="M 123.77307,22.628884 V 56.153981"
       id="path86395" />
    <path
       style="opacity:0.95;fill:none;stroke:#000000;stroke-width:0.352777;stroke-dasharray:none;marker-end:url(#Arrow2-9)"
       d="m 123.96937,22.740205 24.9741,33.654285"
       id="path86395-6"
       sodipodi:nodetypes="cc" />
    <path
       style="opacity:0.95;fill:none;stroke:#000000;stroke-width:0.352777;stroke-dasharray:none;marker-end:url(#marker86618)"
       d="m 123.6465,22.535525 h 24.51822"
       id="path86614" />
    <text
       xml:space="preserve"
       style="font-size:3.175px;font-family:sans-serif;-inkscape-font-specification:'sans-serif, Normal';opacity:0.95;fill:none;stroke:#000000;stroke-width:0;stroke-dasharray:none"
       x="27.835974"
       y="-119.95218"
       id="text86718"
       transform="rotate(90)"><tspan
         sodipodi:role="line"
         id="tspan86716"
         style="fill:#010101;fill-opacity:1;stroke-width:0;stroke-dasharray:none"
         x="27.835974"
         y="-119.95218">Flow of river</tspan></text>
    <text
       xml:space="preserve"
       style="font-size:3.175px;font-family:sans-serif;-inkscape-font-specification:'sans-serif, Normal';opacity:0.95;fill:none;stroke:#000000;stroke-width:0;stroke-dasharray:none"
       x="101.19304"
       y="-84.944511"
       id="text86718-0"
       transform="rotate(52.180135)"
       inkscape:transform-center-x="9.7416107"
       inkscape:transform-center-y="-6.622169"><tspan
         sodipodi:role="line"
         id="tspan86716-6"
         style="fill:#010101;fill-opacity:1;stroke-width:0;stroke-dasharray:none"
         x="101.19304"
         y="-84.944511">Path of swimmer</tspan></text>
    <text
       xml:space="preserve"
       style="font-size:3.175px;font-family:sans-serif;-inkscape-font-specification:'sans-serif, Normal';opacity:0.95;fill:#010101;fill-opacity:1;stroke:#000000;stroke-width:0;stroke-dasharray:none"
       x="126.11224"
       y="21.585421"
       id="text86722"
       inkscape:export-filename="../swimming-vector.png"
       inkscape:export-xdpi="96"
       inkscape:export-ydpi="96"><tspan
         sodipodi:role="line"
         id="tspan86720"
         style="stroke-width:0"
         x="126.11224"
         y="21.585421">Swim effort</tspan></text>
  </g>
</svg>
